<svg xmlns="http://www.w3.org/2000/svg" style="display: none;">
  <symbol id="icon-fingerprint" viewBox="0 0 24 24" fill="none" stroke="currentColor" stroke-width="2" stroke-linecap="round" stroke-linejoin="round">
    <path d="M2 12C2 6.5 6.5 2 12 2a10 10 0 0 1 8 4M5 19.5C5.5 18 6 15 6 12c0-.7.1-1.4.3-2M12 10a2 2 0 0 0-2 2c0 3.5-1 6.5-2 8.5M16 11a4 4 0 0 0-4-4M19 15c-.5 2.5-1.5 5-2.5 6.5M12 14a2 2 0 0 1 2 2c0 2.5-.5 5-1.5 6.5"></path>
  </symbol>
  <symbol id="icon-shield" viewBox="0 0 24 24" fill="none" stroke="currentColor" stroke-width="2" stroke-linecap="round" stroke-linejoin="round">
    <path d="M12 22s8-4 8-10V5l-8-3-8 3v7c0 6 8 10 8 10z"></path>
  </symbol>
  <symbol id="icon-cpu" viewBox="0 0 24 24" fill="none" stroke="currentColor" stroke-width="2" stroke-linecap="round" stroke-linejoin="round">
    <rect x="4" y="4" width="16" height="16" rx="2"></rect>
    <rect x="9" y="9" width="6" height="6"></rect>
    <line x1="9" y1="1" x2="9" y2="4"></line>
    <line x1="15" y1="1" x2="15" y2="4"></line>
    <line x1="9" y1="20" x2="9" y2="23"></line>
    <line x1="15" y1="20" x2="15" y2="23"></line>
    <line x1="20" y1="9" x2="23" y2="9"></line>
    <line x1="20" y1="14" x2="23" y2="14"></line>
    <line x1="1" y1="9" x2="4" y2="9"></line>
    <line x1="1" y1="14" x2="4" y2="14"></line>
  </symbol>
  <symbol id="icon-globe" viewBox="0 0 24 24" fill="none" stroke="currentColor" stroke-width="2" stroke-linecap="round" stroke-linejoin="round">
    <circle cx="12" cy="12" r="10"></circle>
    <line x1="2" y1="12" x2="22" y2="12"></line>
    <path d="M12 2a15.3 15.3 0 0 1 4 10 15.3 15.3 0 0 1-4 10 15.3 15.3 0 0 1-4-10 15.3 15.3 0 0 1 4-10z"></path>
  </symbol>
  <symbol id="icon-play" viewBox="0 0 24 24" fill="currentColor" stroke="none">
    <polygon points="5 3 19 12 5 21 5 3"></polygon>
  </symbol>
  <symbol id="icon-plus" viewBox="0 0 24 24" fill="none" stroke="currentColor" stroke-width="2" stroke-linecap="round" stroke-linejoin="round">
    <line x1="12" y1="5" x2="12" y2="19"></line>
    <line x1="5" y1="12" x2="19" y2="12"></line>
  </symbol>
  <symbol id="icon-copy" viewBox="0 0 24 24" fill="none" stroke="currentColor" stroke-width="2" stroke-linecap="round" stroke-linejoin="round">
    <rect x="9" y="9" width="13" height="13" rx="2" ry="2"></rect>
    <path d="M5 15H4a2 2 0 0 1-2-2V4a2 2 0 0 1 2-2h9a2 2 0 0 1 2 2v1"></path>
  </symbol>
  <symbol id="icon-trash" viewBox="0 0 24 24" fill="none" stroke="currentColor" stroke-width="2" stroke-linecap="round" stroke-linejoin="round">
    <polyline points="3 6 5 6 21 6"></polyline>
    <path d="M19 6v14a2 2 0 0 1-2 2H7a2 2 0 0 1-2-2V6m3 0V4a2 2 0 0 1 2-2h4a2 2 0 0 1 2 2v2"></path>
  </symbol>
  <symbol id="icon-check" viewBox="0 0 24 24" fill="none" stroke="currentColor" stroke-width="2" stroke-linecap="round" stroke-linejoin="round">
    <polyline points="20 6 9 17 4 12"></polyline>
  </symbol>
  <symbol id="icon-terminal" viewBox="0 0 24 24" fill="none" stroke="currentColor" stroke-width="2" stroke-linecap="round" stroke-linejoin="round">
    <polyline points="4 17 10 11 4 5"></polyline>
    <line x1="12" y1="19" x2="20" y2="19"></line>
  </symbol>
</svg>
